<svg width="180" height="42" viewBox="0 0 180 42" fill="none" xmlns="http://www.w3.org/2000/svg">
<g id="Group">
<path id="Vector" d="M59.4191 0C61.4108 0 63.0706 1.6733 63.0706 3.68126C63.0706 5.68922 61.4108 7.36252 59.4191 7.36252C57.4274 7.36252 55.7676 5.68922 55.7676 3.68126C55.6846 1.6733 57.3444 0 59.4191 0Z" fill="white"/>
<path id="Vector_2" d="M172.697 0C174.689 0 176.348 1.6733 176.348 3.68126C176.348 5.68922 174.689 7.36252 172.697 7.36252C170.705 7.36252 169.045 5.68922 169.045 3.68126C169.045 1.6733 170.705 0 172.697 0Z" fill="white"/>
<path id="Vector_3" d="M50.1246 1.33813V0.250488H36.7636L25.6432 29.3659L13.444 0.334152H0V1.4218H5.14524V35.9755C5.14524 41.079 0 40.2424 0 40.4097V41.4974H11.0374V40.4097C11.0374 40.075 6.39005 41.079 6.39005 35.9755V3.93175L20.6639 40.9117C20.9129 41.33 21.0789 41.33 21.4938 41.33C21.9088 41.33 22.1577 41.2464 22.3237 40.9117L36.6806 3.76442V40.2424H31.5353V41.33H50.0416V40.2424H45.2283V1.25447H50.0416V1.33813H50.1246Z" fill="white"/>
<path id="Vector_4" d="M143.32 38.0679L143.071 37.8169C142.988 37.7332 142.822 37.7332 142.739 37.8169C142.075 38.4862 140.498 40.0758 138.922 40.0758C137.677 40.0758 136.432 38.9045 136.432 36.2272V17.4863H142.407V16.5659H136.515V3.01221H135.602C135.602 10.0401 129.71 15.7293 125.478 16.315V17.2353H128.631V34.4703C128.631 39.3228 131.038 41.7491 135.685 41.7491C139.917 41.7491 142.324 39.3228 143.237 38.3189C143.32 38.3189 143.403 38.2352 143.32 38.0679Z" fill="white"/>
<path id="Vector_5" d="M162.489 38.0679L162.24 37.8169C162.157 37.7332 161.991 37.7332 161.908 37.8169C161.245 38.4862 159.668 40.0758 158.091 40.0758C156.846 40.0758 155.601 38.9045 155.601 36.2272V17.4863H161.576V16.5659H155.601V3.01221H154.771C154.771 10.0401 148.879 15.7293 144.647 16.315V17.2353H147.801V34.4703C147.801 39.3228 150.207 41.7491 154.854 41.7491C159.087 41.7491 161.576 39.3228 162.406 38.3189C162.655 38.3189 162.738 38.2352 162.489 38.0679Z" fill="white"/>
<path id="Vector_6" d="M63.0724 40.3267V16.7332V15.9802C63.0724 15.5619 62.7404 15.4782 62.4085 15.5619C61.4956 15.8129 59.3379 16.3985 56.7653 16.3985H51.5371V17.4862H55.5205V40.3267H51.5371V41.4144H66.5579V40.3267H63.0724Z" fill="white"/>
<path id="Vector_7" d="M97.0967 40.3264V22.9241C97.0967 19.0755 95.022 14.8086 89.2128 14.8086C85.3124 14.8086 82.4079 16.9002 80.4161 20.7488V17.4859V15.9799C80.4161 15.5616 80.0842 15.4779 79.7523 15.5616C78.8394 15.8126 76.6817 16.3982 74.1091 16.3982H68.8809V17.4859H72.8643V40.3264H68.8809V41.4141H83.9016V40.3264H80.3332V26.5217C80.4162 17.8205 86.2253 16.8166 87.0552 16.8166C87.968 16.8166 89.5448 17.5695 89.5448 19.9122V40.3264H85.5614V41.4141H100.582V40.3264H97.0967Z" fill="white"/>
<path id="Vector_8" d="M176.515 40.3267V16.7332V15.9802C176.515 15.5619 176.183 15.4782 175.851 15.5619C174.938 15.8129 172.78 16.3985 170.208 16.3985H164.979V17.4862H168.963V40.3267H164.979V41.4144H180V40.3267H176.515Z" fill="white"/>
<path id="Vector_9" d="M112.616 14.7251C104.981 14.7251 98.7568 20.8326 98.7568 28.3625C98.7568 35.8924 104.981 41.9999 112.616 41.9999C120.251 41.9999 126.475 35.8924 126.475 28.3625C126.641 20.8326 120.417 14.7251 112.616 14.7251ZM117.346 34.721C117.346 39.0716 115.52 40.8286 112.616 40.8286C109.711 40.8286 107.885 38.988 107.885 34.721V22.0876C107.885 17.737 109.711 15.9801 112.616 15.9801C115.52 15.9801 117.346 17.8207 117.346 22.0876V34.721Z" fill="white"/>
</g>
</svg>
