<?xml version="1.0" standalone="no"?>
<!DOCTYPE svg PUBLIC "-//W3C//DTD SVG 20010904//EN"
 "http://www.w3.org/TR/2001/REC-SVG-20010904/DTD/svg10.dtd">
<svg version="1.0" xmlns="http://www.w3.org/2000/svg"
 width="700.000000pt" height="700.000000pt" viewBox="0 0 700.000000 700.000000"
 preserveAspectRatio="xMidYMid meet">
<metadata>
Created by potrace 1.14, written by Peter Selinger 2001-2017
</metadata>
<g transform="translate(0.000000,700.000000) scale(0.100000,-0.100000)"
fill="#000000" stroke="none">
<path d="M1040 5465 l0 -55 250 0 250 0 -2 -1767 -3 -1768 -32 -67 c-66 -140
-177 -205 -385 -223 l-78 -7 0 -54 0 -54 540 0 540 0 0 59 0 58 -74 6 c-41 4
-105 17 -143 29 -89 29 -168 104 -204 193 l-24 60 -2 1635 c-1 900 2 1626 7
1615 4 -11 319 -825 699 -1809 380 -984 698 -1797 707 -1807 22 -25 94 -26
123 -1 13 11 254 623 722 1832 385 998 703 1817 705 1819 2 2 4 -797 4 -1777
l0 -1782 -250 0 -250 0 0 -55 0 -55 905 0 905 0 0 55 0 55 -235 0 -235 0 0
1910 0 1910 240 0 240 0 0 50 0 50 -657 -2 -657 -3 -542 -1418 c-298 -780
-543 -1420 -546 -1422 -2 -2 -273 637 -602 1420 l-599 1425 -658 0 -659 0 0
-55z"/>
</g>
</svg>
