<?xml version="1.0" standalone="no"?>
<!DOCTYPE svg PUBLIC "-//W3C//DTD SVG 20010904//EN"
 "http://www.w3.org/TR/2001/REC-SVG-20010904/DTD/svg10.dtd">
<svg version="1.0" xmlns="http://www.w3.org/2000/svg"
 width="2880.000000pt" height="2880.000000pt" viewBox="0 0 2880.000000 2880.000000"
 preserveAspectRatio="xMidYMid meet">
<metadata>
Created by potrace 1.14, written by Peter Selinger 2001-2017
</metadata>
<g transform="translate(0.000000,2880.000000) scale(0.100000,-0.100000)"
fill="#000000" stroke="none">
<path d="M9380 17746 c-133 -32 -227 -87 -317 -185 -24 -25 -43 -52 -43 -58 0
-7 -3 -13 -8 -13 -14 0 -62 -117 -77 -184 -17 -83 -13 -212 10 -291 17 -61 74
-176 100 -201 7 -8 22 -24 32 -37 54 -67 163 -136 271 -172 80 -26 274 -24
337 4 174 76 261 152 344 301 52 92 77 275 51 375 -6 22 -13 49 -15 60 -14 62
-84 175 -150 240 -82 83 -172 134 -285 162 -46 11 -201 11 -250 -1z"/>
<path d="M27520 17748 c-19 -4 -46 -11 -60 -14 -80 -17 -227 -125 -305 -224
-79 -100 -121 -276 -100 -427 19 -143 118 -302 248 -397 38 -28 135 -74 165
-79 9 -1 22 -6 29 -10 23 -14 188 -15 253 -1 82 17 190 70 256 126 52 44 114
119 114 138 0 5 3 10 8 10 4 0 15 17 24 38 50 110 62 160 61 272 0 78 -7 114
-34 189 -12 31 -23 64 -26 74 -3 9 -9 17 -14 17 -5 0 -9 7 -9 15 0 8 -4 15 -9
15 -5 0 -12 8 -15 18 -8 25 -118 134 -153 152 -15 8 -30 17 -33 21 -12 13
-106 51 -159 63 -65 15 -189 18 -241 4z"/>
<path d="M6116 17722 c-3 -2 -56 -4 -118 -3 l-114 2 -24 -57 c-13 -32 -23 -63
-23 -71 0 -7 -4 -13 -8 -13 -3 0 -9 -10 -12 -22 -2 -13 -38 -111 -79 -218 -41
-107 -119 -310 -173 -450 -53 -140 -102 -266 -108 -280 -5 -14 -11 -31 -13
-38 -1 -8 -9 -28 -17 -45 -8 -18 -38 -93 -65 -168 -28 -75 -60 -157 -71 -182
-11 -26 -18 -47 -14 -47 3 0 1 -6 -4 -12 -5 -7 -17 -35 -27 -63 -10 -27 -22
-59 -26 -70 -5 -11 -20 -49 -34 -85 -50 -136 -237 -626 -245 -645 -10 -21 -29
-73 -136 -355 -36 -96 -70 -184 -76 -195 -6 -12 -11 -27 -13 -35 -2 -8 -9 -28
-15 -45 -7 -16 -37 -95 -67 -175 -30 -80 -59 -154 -64 -165 -10 -21 -129 -333
-134 -350 -5 -15 -17 -48 -27 -70 -5 -11 -19 -49 -32 -85 -30 -81 -204 -538
-216 -565 -26 -58 -51 -130 -52 -144 0 -18 0 -19 -46 84 -14 33 -28 69 -30 80
-2 11 -8 21 -13 23 -6 2 -10 9 -10 16 0 12 -55 147 -85 211 -8 17 -55 129
-105 250 -50 121 -97 234 -105 250 -7 17 -54 129 -105 250 -51 121 -99 236
-107 255 -9 19 -21 49 -28 65 -8 17 -37 86 -65 155 -28 69 -57 136 -63 150 -5
14 -11 27 -12 30 0 3 -11 27 -23 54 -12 27 -22 50 -22 52 0 2 -9 23 -19 47
-10 23 -35 80 -54 127 -58 140 -118 283 -132 315 -8 17 -30 71 -51 120 -20 50
-45 109 -55 132 -18 40 -40 92 -44 103 -4 13 -20 50 -41 98 -13 29 -24 59 -24
67 0 8 -4 15 -10 15 -5 0 -10 8 -10 18 0 9 -7 31 -16 47 -9 17 -26 57 -39 90
-13 33 -34 85 -48 115 -14 31 -35 80 -47 110 -12 30 -28 69 -35 85 -13 29 -71
166 -175 415 -29 69 -65 155 -81 191 -36 84 -52 122 -54 134 -2 6 -14 35 -28
65 -14 30 -37 84 -51 120 -15 36 -32 76 -38 90 -14 32 -22 51 -57 135 l-29 70
-1076 1 -1076 0 0 -87 0 -87 407 0 c365 1 407 -1 412 -15 9 -24 5 -5561 -3
-5628 -18 -145 -54 -246 -121 -334 -132 -173 -341 -254 -658 -256 l-37 0 0
-91 0 -90 25 4 c14 3 28 1 31 -4 3 -4 10 -6 15 -2 6 3 34 6 62 5 145 -2 218
-1 227 4 5 3 11 1 15 -5 4 -6 11 -8 16 -4 6 3 34 6 62 5 145 -2 229 -1 237 4
6 4 10 1 10 -5 0 -6 5 -8 11 -5 6 4 34 7 62 6 145 -2 218 -1 227 4 5 3 11 1
15 -5 4 -6 11 -8 16 -4 6 3 34 6 62 5 145 -2 229 -1 237 4 6 4 10 1 10 -5 0
-6 5 -8 11 -5 6 4 34 7 62 6 145 -2 218 -1 227 4 5 3 11 1 15 -5 4 -6 11 -7
17 -4 6 4 30 6 53 6 l42 -2 -1 90 0 90 -31 5 c-16 3 -57 7 -90 10 -109 9 -149
16 -230 44 -186 63 -310 196 -360 386 -9 33 -19 69 -22 80 -3 11 -7 1205 -8
2654 -1 2201 0 2631 12 2615 7 -10 13 -22 13 -27 0 -8 86 -237 110 -292 12
-27 182 -472 232 -605 22 -58 48 -124 59 -147 10 -24 19 -47 19 -53 0 -6 4
-18 10 -28 5 -9 27 -64 49 -122 22 -58 46 -118 52 -135 7 -16 13 -32 13 -35 1
-3 7 -18 13 -35 6 -16 28 -73 48 -125 20 -52 43 -111 51 -130 24 -61 37 -95
40 -105 2 -5 37 -98 79 -205 42 -107 78 -199 79 -205 2 -5 8 -21 13 -35 36
-86 52 -130 45 -130 -4 0 -2 -4 4 -8 5 -4 18 -29 28 -57 39 -104 158 -411 172
-442 8 -17 14 -35 14 -39 0 -5 15 -47 34 -94 19 -47 46 -115 60 -152 50 -130
74 -194 119 -308 25 -63 59 -153 77 -200 18 -47 51 -134 75 -195 24 -60 62
-159 85 -220 23 -60 46 -119 51 -130 4 -11 26 -67 48 -125 22 -58 45 -118 52
-135 7 -16 13 -34 15 -40 1 -5 18 -48 37 -95 39 -98 91 -233 92 -240 0 -3 27
-72 59 -155 76 -194 132 -338 196 -505 28 -74 56 -144 60 -155 5 -11 23 -56
40 -100 34 -90 45 -106 79 -124 33 -18 129 -15 166 5 17 9 38 32 47 53 37 82
48 109 48 117 0 9 83 224 120 309 10 24 84 218 86 225 0 3 4 14 9 25 4 11 17
43 27 70 10 28 22 59 27 70 5 11 16 40 26 65 10 25 21 54 25 65 5 11 27 70 50
130 67 176 228 593 263 680 17 44 32 82 33 85 0 3 6 19 13 35 7 17 26 64 41
105 15 41 34 89 41 105 7 17 13 32 13 35 3 11 61 160 86 220 15 36 27 67 28
70 0 3 6 19 12 35 6 17 20 53 30 80 35 94 111 290 126 322 8 17 14 35 14 40 0
5 9 28 20 51 11 22 20 46 20 52 0 6 9 29 20 50 11 22 18 40 14 40 -3 0 1 11
10 25 9 14 14 25 12 25 -3 0 8 31 24 69 17 39 30 77 30 85 0 9 5 16 12 16 6 0
9 2 6 6 -3 3 10 44 29 92 19 48 36 92 37 97 1 6 6 17 11 25 5 8 10 17 10 20 2
13 29 87 38 105 6 11 12 28 14 38 2 10 9 28 15 40 7 12 13 24 14 27 0 3 4 13
8 22 4 9 9 22 10 30 2 7 8 24 13 38 19 43 105 265 107 275 2 6 8 21 14 35 5
14 38 97 71 185 34 88 64 167 68 175 3 8 7 17 7 20 1 3 4 10 7 15 9 15 33 89
30 94 -2 2 1 7 6 10 5 3 22 42 38 86 15 44 31 85 35 90 4 6 11 25 15 43 3 17
10 32 14 32 4 0 8 6 8 13 0 6 35 102 78 212 42 110 97 252 121 315 25 63 48
124 53 135 5 11 15 36 21 55 7 19 19 49 25 65 38 91 75 192 75 202 0 6 4 14 9
18 6 3 9 -1117 8 -2902 l-2 -2908 -398 -2 c-218 0 -403 -3 -410 -6 -10 -4 -15
-98 -8 -162 1 -7 496 -9 1469 -8 807 1 1472 2 1477 2 14 1 16 159 3 167 -6 4
-178 7 -384 6 -273 0 -374 3 -376 11 -2 7 -3 1409 -3 3117 l1 3105 45 1 c24 1
46 3 49 4 14 5 51 6 55 0 5 -8 48 -6 62 3 7 4 14 4 17 -1 5 -9 47 -9 63 1 7 4
14 4 17 -1 5 -9 47 -9 63 1 7 4 14 4 17 -1 5 -9 47 -9 63 1 7 4 14 4 17 -1 5
-9 47 -9 63 1 7 4 14 4 17 -1 5 -9 47 -9 63 1 7 4 14 4 17 -1 5 -9 47 -9 63 1
7 4 14 3 18 -2 3 -6 12 -8 20 -5 7 3 22 1 33 -5 19 -10 20 -7 21 78 1 79 0 89
-18 94 -10 2 -24 1 -31 -3 -6 -4 -29 -4 -50 0 -21 4 -44 4 -51 -1 -7 -4 -20
-4 -29 1 -9 5 -22 5 -29 1 -7 -5 -30 -5 -51 -1 -21 4 -44 4 -51 -1 -7 -4 -20
-4 -29 1 -9 5 -22 5 -29 1 -7 -5 -30 -5 -51 -1 -21 4 -44 4 -51 -1 -7 -4 -20
-4 -29 1 -9 5 -22 5 -29 1 -7 -5 -30 -5 -51 -1 -21 4 -44 4 -51 -1 -7 -4 -16
-6 -19 -4 -5 3 -198 6 -290 4 -164 -3 -461 1 -470 6 -3 2 -12 0 -20 -5 -8 -5
-21 -5 -30 0 -9 5 -22 5 -29 1 -7 -5 -30 -5 -51 -1 -21 4 -44 4 -51 -1 -7 -4
-20 -4 -29 1 -9 5 -22 5 -29 1 -7 -5 -30 -5 -51 -1 -21 4 -44 4 -51 -1 -7 -4
-20 -4 -29 1 -9 5 -22 5 -29 1 -7 -5 -30 -5 -51 -1 -22 4 -42 5 -44 2z"/>
<path d="M21699 17272 c0 -4 -2 -40 -4 -81 -5 -83 -12 -154 -20 -191 -2 -14
-6 -44 -9 -65 -2 -22 -9 -60 -16 -85 -7 -25 -14 -56 -17 -70 -8 -46 -45 -164
-80 -255 -94 -245 -242 -495 -411 -695 -96 -113 -339 -346 -376 -359 -6 -2
-16 -9 -22 -15 -33 -30 -85 -66 -158 -108 -44 -26 -85 -51 -91 -55 -8 -7 -79
-39 -160 -73 -40 -16 -80 -30 -100 -35 -11 -2 -51 -12 -90 -22 l-70 -18 1 -70
0 -70 247 -1 c136 0 249 -3 252 -6 3 -3 6 -55 5 -114 0 -60 -1 -118 -1 -129 0
-11 0 -85 0 -165 0 -80 0 -152 0 -160 0 -8 0 -80 0 -160 0 -80 0 -152 0 -160
0 -8 0 -80 0 -160 0 -80 0 -152 0 -160 0 -8 0 -80 0 -160 0 -80 0 -152 0 -160
0 -8 0 -80 0 -160 0 -80 0 -152 0 -160 0 -8 0 -80 0 -160 0 -80 0 -152 0 -160
0 -34 0 -306 0 -315 -2 -52 11 -496 15 -515 2 -14 7 -41 10 -60 10 -61 17 -94
28 -135 6 -22 12 -44 14 -50 13 -59 93 -226 127 -266 10 -11 17 -23 17 -28 0
-18 149 -159 212 -200 36 -24 69 -43 73 -42 4 2 11 -1 14 -6 14 -20 205 -90
270 -98 18 -2 41 -7 51 -10 31 -10 296 -30 345 -26 6 0 39 3 75 5 69 5 129 13
170 21 14 3 39 8 55 11 43 8 60 12 63 14 2 3 2 3 52 14 19 5 41 13 48 18 6 6
12 8 12 5 0 -15 233 94 304 141 26 18 49 32 52 32 25 0 354 292 354 314 0 13
-61 66 -75 66 -9 0 -44 -27 -78 -61 -217 -213 -397 -310 -566 -306 -125 3
-224 65 -293 183 -37 64 -46 84 -71 174 l-22 75 -3 1588 c-2 1281 0 1587 10
1588 60 4 128 3 128 -3 0 -4 12 -3 28 1 31 8 64 7 81 -3 6 -4 11 -4 11 1 0 4
45 8 100 8 55 0 100 -3 100 -7 0 -4 12 -3 28 1 25 6 52 7 77 1 6 -1 12 -1 15
0 14 5 200 4 200 -2 0 -4 12 -3 28 1 15 3 54 6 87 5 l60 -1 -1 61 c-1 34 -2
67 -3 74 -1 9 -102 12 -469 12 l-468 0 0 1083 1 1084 -72 0 c-40 1 -73 -2 -74
-5z"/>
<path d="M24763 17231 c0 -117 -30 -328 -65 -461 -11 -41 -21 -82 -23 -90 -2
-8 -4 -15 -5 -15 -1 0 -3 -7 -5 -15 -12 -53 -75 -205 -135 -325 -58 -118 -196
-348 -219 -365 -4 -3 -14 -17 -24 -32 -47 -75 -282 -324 -368 -390 -17 -13
-39 -30 -49 -39 -10 -8 -31 -24 -45 -35 -15 -10 -32 -23 -39 -29 -6 -5 -31
-23 -56 -39 -25 -16 -57 -37 -72 -48 -15 -10 -31 -18 -37 -18 -5 0 -11 -4 -13
-8 -9 -23 -290 -139 -383 -157 -22 -5 -43 -9 -47 -10 -5 -2 -14 -3 -21 -4 -10
-1 -14 -19 -13 -73 l1 -73 245 -2 c135 -1 248 -2 252 -2 3 -1 7 -650 7 -1443
1 -794 3 -1463 5 -1488 5 -53 16 -136 23 -165 2 -11 6 -31 9 -45 13 -70 72
-233 107 -295 74 -130 172 -240 272 -303 58 -37 175 -95 215 -107 3 -1 29 -9
59 -18 70 -22 219 -48 296 -52 33 -2 62 -4 65 -5 3 -1 8 -2 11 -2 4 1 62 3
130 6 136 6 196 12 249 26 19 5 51 12 70 15 94 16 325 107 415 164 22 14 43
25 46 26 19 1 206 151 282 227 49 48 95 88 103 88 8 0 14 5 14 11 0 14 -72 79
-88 79 -12 0 -79 -56 -127 -106 -16 -18 -81 -72 -172 -145 -7 -5 -13 -6 -13
-2 0 4 -4 3 -8 -3 -10 -15 -122 -77 -122 -67 0 4 -4 3 -8 -2 -14 -20 -112 -43
-181 -43 -105 0 -166 26 -244 105 -38 37 -109 153 -113 183 0 3 -6 25 -13 50
-16 56 -20 73 -27 135 -6 50 -13 3111 -7 3130 4 12 73 12 91 1 7 -4 12 -4 12
1 0 7 234 9 265 3 6 -1 15 -1 20 0 26 6 137 4 142 -3 2 -4 9 -4 15 -1 15 10
299 11 305 1 2 -4 12 -3 21 1 9 5 32 7 50 5 17 -1 32 2 33 7 0 6 1 26 1 45 0
19 -1 48 -1 65 l-1 30 -477 2 -477 3 -1 1080 0 1080 -66 1 -66 1 0 -46z"/>
<path d="M17907 15403 c-2 -1 -36 -5 -77 -8 -77 -6 -128 -12 -170 -20 -14 -3
-41 -7 -60 -10 -19 -3 -62 -12 -95 -20 -33 -8 -69 -17 -80 -20 -45 -10 -211
-68 -219 -76 -6 -5 -17 -9 -26 -9 -13 0 -240 -109 -295 -143 -32 -19 -177
-115 -212 -141 -70 -51 -142 -115 -238 -211 -115 -115 -185 -201 -275 -335
-65 -97 -180 -312 -180 -336 0 -8 -5 -14 -12 -14 -6 0 -8 -3 -5 -7 4 -3 3 -11
-2 -17 -7 -9 -51 -131 -57 -158 -1 -5 -3 -11 -4 -15 -1 -5 -2 -11 -1 -15 0 -5
-4 -8 -11 -8 -6 0 -9 -3 -6 -6 4 -3 2 -20 -3 -37 -6 -18 -12 -43 -15 -57 -3
-13 -12 -56 -20 -95 -8 -38 -18 -90 -21 -115 -2 -25 -8 -71 -12 -104 -5 -32
-7 -135 -6 -230 3 -157 7 -219 21 -301 3 -16 7 -41 9 -55 2 -14 9 -47 15 -75
7 -27 14 -59 15 -70 2 -11 8 -33 15 -50 6 -16 12 -32 12 -35 1 -9 6 -25 23
-75 21 -63 26 -79 26 -82 -1 -13 146 -314 158 -323 3 -3 15 -21 25 -40 20 -35
137 -201 159 -226 7 -7 30 -34 52 -60 257 -303 648 -556 1035 -668 95 -27 138
-38 160 -42 8 -2 51 -10 96 -18 45 -8 108 -18 140 -23 79 -10 421 -9 509 1 39
5 79 9 91 10 11 1 24 5 30 7 5 3 22 6 37 7 16 1 52 9 80 17 29 8 63 16 77 19
49 9 157 44 188 60 17 9 34 16 37 15 14 -2 105 36 105 45 0 5 3 7 6 3 14 -13
355 180 420 238 6 6 45 36 86 68 71 56 251 234 313 311 17 20 37 45 45 55 8
10 20 25 25 33 6 8 28 42 50 74 90 134 197 337 225 429 7 22 15 45 19 50 3 6
6 12 7 15 0 3 3 12 7 20 5 12 21 66 33 113 1 4 2 8 4 10 1 1 3 9 5 17 2 8 10
44 19 80 8 36 18 90 22 120 3 30 8 58 10 61 16 28 23 411 10 539 -4 41 -9 89
-11 105 -2 17 -4 30 -5 30 -1 0 -3 14 -5 30 -1 17 -8 50 -15 75 -7 25 -14 53
-16 62 -2 10 -6 26 -8 36 -12 51 -70 219 -80 231 -6 8 -9 15 -8 15 6 2 -25 75
-61 146 -150 299 -385 576 -647 765 -30 21 -57 42 -60 45 -3 4 -12 10 -20 13
-8 4 -46 27 -85 52 -58 36 -228 126 -245 130 -3 0 -27 11 -54 23 -27 12 -54
22 -60 22 -7 0 -16 4 -21 8 -16 14 -176 62 -290 88 -113 26 -198 39 -313 49
-30 3 -58 7 -63 10 -5 4 -9 1 -9 -5 0 -6 -5 -8 -11 -4 -10 6 -227 13 -232 7z
m223 -207 c70 -7 82 -10 158 -35 101 -33 162 -71 243 -152 131 -131 200 -302
236 -579 9 -75 9 -2314 -1 -2415 -10 -113 -18 -158 -38 -230 -6 -22 -13 -48
-15 -58 -2 -10 -13 -42 -25 -70 -88 -207 -197 -314 -403 -392 -24 -9 -39 -13
-85 -19 -19 -3 -35 -5 -35 -6 0 -4 -67 -10 -135 -11 -143 -2 -268 24 -376 79
-44 22 -138 94 -167 127 -59 68 -137 207 -153 272 -4 16 -10 33 -14 38 -4 6
-10 24 -13 40 -5 29 -16 84 -22 115 -2 8 -4 15 -5 15 -11 0 -14 324 -14 1300
-1 1031 3 1265 19 1325 2 8 6 26 9 40 26 131 54 209 118 322 33 58 163 188
188 188 6 0 10 4 10 8 0 5 19 16 43 26 23 10 56 25 72 32 17 8 41 16 55 18 14
3 25 5 25 6 0 3 43 10 99 15 33 3 61 7 62 8 4 4 101 0 164 -7z"/>
<path d="M14118 15385 c-2 -1 -28 -6 -59 -9 -257 -30 -561 -168 -740 -336 -8
-8 -29 -27 -45 -41 -75 -67 -220 -241 -264 -317 -8 -15 -19 -31 -25 -37 -5 -7
-19 -28 -30 -48 -11 -20 -23 -37 -28 -37 -4 0 -6 -4 -2 -9 3 -5 -1 -15 -8 -23
-7 -7 -20 -29 -30 -48 -9 -19 -17 -33 -18 -30 0 3 -2 182 -2 398 l-2 393 -24
18 c-29 22 -40 21 -201 -19 -63 -16 -131 -32 -150 -36 -19 -4 -37 -8 -40 -9
-3 -1 -30 -5 -60 -9 -30 -5 -64 -10 -75 -12 -11 -3 -40 -7 -65 -10 -25 -3 -56
-7 -70 -9 -97 -13 -286 -18 -690 -19 l-465 -1 -1 -63 c0 -34 -4 -65 -7 -68 -4
-4 -2 -14 3 -24 8 -15 27 -17 162 -16 84 1 159 -3 166 -8 7 -5 17 -5 25 0 9 7
196 10 273 5 9 -1 12 -481 12 -1826 0 -1680 -2 -1825 -17 -1826 -9 0 -151 -1
-316 -2 l-300 -2 0 -85 0 -85 1190 -1 c655 -1 1195 3 1201 7 8 7 12 121 5 161
0 3 -115 6 -253 6 -139 0 -267 1 -284 1 l-30 1 1 1188 c1 653 5 1216 9 1252 7
58 30 210 41 265 12 65 16 82 24 105 5 14 20 59 32 100 13 41 27 78 32 81 5 3
8 9 7 13 -3 8 22 69 30 76 3 3 12 21 20 40 7 19 22 47 32 62 10 14 18 31 18
37 0 6 5 11 10 11 6 0 10 6 10 14 0 8 3 16 8 18 4 2 21 23 37 48 42 63 178
197 255 252 54 38 216 129 242 137 4 1 13 3 20 5 141 44 156 48 244 51 63 2
79 -1 145 -32 91 -42 159 -110 202 -202 33 -69 35 -76 39 -128 2 -18 6 -33 9
-33 3 0 5 -756 6 -1680 l0 -1680 -51 -1 c-28 0 -171 0 -318 0 l-268 0 0 -87 0
-88 1193 0 c655 1 1197 4 1202 8 6 3 10 41 9 85 l-1 78 -271 1 c-150 0 -275 4
-279 8 -4 4 -8 661 -9 1459 0 799 -4 1477 -8 1507 -9 69 -45 243 -58 280 -3 8
-14 38 -24 65 -29 83 -92 211 -126 260 -83 116 -141 179 -228 247 -41 32 -80
63 -87 68 -7 6 -14 10 -17 10 -3 0 -27 13 -53 28 -26 15 -75 38 -108 51 -33
13 -69 26 -80 31 -26 10 -110 32 -175 46 -65 14 -440 30 -452 19z"/>
<path d="M10005 15273 c-11 -2 -46 -11 -78 -19 -32 -8 -67 -17 -78 -20 -10 -2
-27 -6 -36 -8 -174 -41 -312 -63 -528 -82 -44 -4 -295 -7 -557 -7 -331 -1
-478 -4 -479 -11 -1 -6 -2 -45 -3 -87 l-1 -76 105 1 c58 1 110 -3 117 -7 7 -5
18 -5 25 -1 16 10 258 11 258 1 0 -5 5 -5 12 -1 17 11 109 10 116 0 9 -15 10
-299 1 -317 -5 -9 -5 -19 -2 -23 10 -10 11 -917 1 -937 -4 -9 -4 -19 -1 -23 4
-4 7 -533 7 -1176 l1 -1170 -50 -1 c-27 0 -170 0 -317 0 -204 0 -268 -2 -269
-12 -1 -16 -2 -128 0 -148 1 -14 118 -15 1199 -15 l1197 1 3 86 3 86 -263 1
c-145 1 -271 1 -280 1 -15 1 -17 132 -17 1962 0 1801 -1 1962 -16 1979 -18 20
-41 28 -70 23z"/>
<path d="M28089 15258 c-63 -16 -121 -30 -224 -54 -11 -2 -33 -6 -50 -9 -16
-3 -52 -10 -80 -15 -27 -5 -74 -12 -104 -15 -30 -4 -63 -9 -75 -11 -59 -11
-286 -17 -696 -17 -250 0 -457 -4 -460 -8 -3 -4 -5 -42 -5 -86 l1 -78 150 -1
c83 0 156 -4 162 -8 7 -4 17 -4 24 0 16 10 209 11 215 1 2 -4 9 -5 14 -1 18
11 59 11 66 0 4 -6 7 -829 8 -1828 l0 -1818 -25 -1 c-14 0 -158 0 -320 0
l-295 -1 1 -81 c1 -45 2 -85 3 -88 1 -3 541 -5 1201 -5 l1200 0 0 87 0 86
-262 1 c-145 0 -270 1 -279 1 -14 1 -16 181 -16 1965 0 2135 4 1987 -54 1998
-14 2 -59 -4 -100 -14z"/>
</g>
</svg>
